<?xml version="1.0" standalone="no"?>
<!DOCTYPE svg PUBLIC "-//W3C//DTD SVG 20010904//EN"
 "http://www.w3.org/TR/2001/REC-SVG-20010904/DTD/svg10.dtd">
<svg version="1.0" xmlns="http://www.w3.org/2000/svg"
 width="70.000000pt" height="70.000000pt" viewBox="0 0 70.000000 70.000000"
 preserveAspectRatio="xMidYMid meet">
<metadata>
Created by potrace 1.11, written by Peter Selinger 2001-2013
</metadata>
<g transform="translate(0.000000,70.000000) scale(0.100000,-0.100000)"
fill="#000000" stroke="none">
<path d="M0 350 l0 -350 350 0 350 0 0 350 0 350 -350 0 -350 0 0 -350z m492
213 c91 -40 168 -136 183 -228 5 -30 0 -23 -17 26 -32 91 -83 151 -162 189
-181 89 -386 -9 -442 -210 -8 -31 -12 -37 -13 -20 -2 43 53 142 103 188 100
92 220 111 348 55z m-6 -31 c66 -34 101 -69 133 -134 46 -91 43 -98 -29 -98
l-59 0 2 38 c2 31 -1 36 -16 34 -15 -3 -17 0 -8 17 14 24 14 78 2 86 -6 3 -13
-11 -17 -32 -11 -63 -19 -69 -37 -30 l-17 35 -80 0 -80 0 -19 -41 -19 -42 -1
47 c-1 26 -5 50 -11 53 -5 3 -10 1 -10 -5 0 -6 -4 -9 -8 -6 -4 2 -14 1 -22 -4
-12 -8 -11 -14 8 -39 27 -36 27 -43 5 -39 -15 2 -17 -3 -15 -34 l3 -38 -61 0
-62 0 7 33 c21 95 95 177 192 213 54 20 167 13 219 -14z m-370 -260 c14 -9 6
-122 -8 -122 -9 0 -7 65 3 100 7 27 -44 18 -58 -10 -7 -14 -13 -19 -13 -11 0
35 48 62 76 43z m154 -12 c0 -5 -4 -10 -10 -10 -5 0 -10 5 -10 10 0 6 5 10 10
10 6 0 10 -4 10 -10z m-190 -70 c-6 -22 -15 -38 -20 -35 -8 5 2 56 17 95 12
30 15 -17 3 -60z m406 48 c-19 -68 -19 -71 -6 -66 16 5 27 24 35 61 3 15 10
27 16 27 10 0 8 -21 -8 -74 -7 -26 19 -16 34 14 11 22 31 40 46 40 16 0 5 -39
-15 -53 -21 -15 -21 -16 -4 -16 11 -1 28 6 38 16 10 9 18 11 18 5 0 -6 -14
-19 -31 -27 -24 -13 -34 -14 -45 -4 -11 9 -18 9 -30 -2 -13 -10 -17 -10 -23 0
-7 10 -13 10 -29 2 -33 -18 -37 2 -15 82 2 9 9 17 15 17 6 0 8 -9 4 -22z
m-278 -8 c4 0 7 -17 6 -37 -1 -33 -4 -37 -28 -36 -44 2 -46 2 -46 21 0 27 30
64 47 58 8 -3 18 -6 21 -6z m147 -31 c-8 -35 11 -40 24 -6 14 35 39 53 54 38
9 -10 7 -17 -11 -31 -23 -19 -22 -47 1 -34 9 5 9 4 0 -6 -8 -8 -16 -9 -29 -2
-12 6 -25 7 -36 1 -22 -12 -32 4 -24 38 5 18 3 24 -6 21 -7 -3 -14 -13 -16
-24 -7 -40 -12 -50 -22 -35 -13 22 9 69 33 73 33 6 39 -1 32 -33z m318 9 c5
-33 -12 -58 -37 -58 -6 0 -3 7 7 14 18 14 24 46 7 46 -5 0 -7 7 -4 15 10 25
21 17 27 -17z m-410 -15 c-1 -21 -2 -40 -2 -42 -1 -2 -7 2 -15 8 -11 10 -12
19 -4 42 14 40 23 36 21 -8z"/>
<path d="M354 523 c-9 -15 -14 -16 -27 -5 -14 12 -15 10 -4 -17 15 -41 58 -44
75 -6 15 33 15 42 0 27 -16 -16 -26 -15 -30 3 -2 13 -5 13 -14 -2z"/>
<path d="M586 221 c-4 -7 -5 -15 -2 -18 9 -9 19 4 14 18 -4 11 -6 11 -12 0z"/>
<path d="M171 211 c-14 -26 -14 -44 1 -39 15 5 29 46 18 53 -5 3 -14 -3 -19
-14z"/>
<path d="M406 214 c-4 -10 -1 -14 6 -12 15 5 23 28 10 28 -5 0 -13 -7 -16 -16z"/>
</g>
</svg>
